# xmcd
# 
# Track frame offsets:
#   150
#   13320
#   28675
#   43540
#   56315
#   71910
#   87470
#   103747
#   119180
#   136007
#   149677
#   162607
#   178947
#   194705
# 
# Disc length: 2850 seconds
# 
# Revision: 1
# Processed by: cddbd v1.5.1PL2 Copyright (c) Steve Scherf et al.
# Submitted via: Synapstar 1.0 
# 
DISCID=df0b200e
DTITLE=Various Artist - SD027 - Country Hits Today
DYEAR=1900
DGENRE=Country
TTITLE0=George Strait - Blue Clear Sky
TTITLE1=Brooks and Dunn - My Maria
TTITLE2=Shania Twain - Noone Needs To Know
TTITLE3=Tracy Lawrence - Time Marches On
TTITLE4=Vince Gill - High Lonesome Sound
TTITLE5=David Lee Murphy - Every Time I Get Around You
TTITLE6=Patty Loveless - A Thousand Times A Day
TTITLE7=Rhett Atkins - Don't Get Me Started
TTITLE8=Linda Davis - A Love Story In The Making
TTITLE9=Ricochet - Daddy's Money
TTITLE10=Lorrie Morgan and John Randall - By My Side
TTITLE11=Sawyer Brown - Treat Her Right
TTITLE12=Dwight Yoakam - Sorry You Asked
TTITLE13=Garth Brooks - The Change
EXTD=MediaType: Karaoke CD+G Producer: StarDisc
EXTT0=
EXTT1=
EXTT2=
EXTT3=
EXTT4=
EXTT5=
EXTT6=
EXTT7=
EXTT8=
EXTT9=
EXTT10=
EXTT11=
EXTT12=
EXTT13=
PLAYORDER=
